<svg  width="25" height="21" viewBox="0 0 25 21" fill="none" xmlns="http://www.w3.org/2000/svg">
<path d="M24.2719 0H0.728059C-0.243053 0.0302695 -0.24232 1.20049 0.728059 1.23047H0.850614C1.14848 2.53054 2.37105 3.55712 3.91933 3.80723V5.27186H1.51282C1.10818 5.27186 0.780129 5.54732 0.780129 5.8871V8.52305C0.780129 8.86282 1.10818 9.13828 1.51282 9.13828H3.91933V15.8156H3.86726C3.46262 15.8156 3.13457 16.0911 3.13457 16.4309V20.3848C3.13457 20.7245 3.46262 21 3.86726 21H8.57604C8.98068 21 9.30873 20.7245 9.30873 20.3848V16.4309C9.30873 16.0911 8.98068 15.8156 8.57604 15.8156H8.52392V9.13828H16.4761V15.8156H16.424C16.0193 15.8156 15.6913 16.0911 15.6913 16.4309V20.3848C15.6913 20.7245 16.0193 21 16.424 21H21.1327C21.5374 21 21.8654 20.7245 21.8654 20.3848V16.4309C21.8654 16.0911 21.5374 15.8156 21.1327 15.8156H21.0807V9.13828H23.4872C23.8918 9.13828 24.2199 8.86282 24.2199 8.52305V5.8871C24.2199 5.54732 23.8918 5.27186 23.4872 5.27186H21.0807V3.80723C22.629 3.55712 23.8515 2.53054 24.1494 1.23047H24.2719C25.2431 1.2002 25.2423 0.0299824 24.2719 0ZM3.91933 7.90781H2.24552V6.50233H3.91933V7.90781ZM7.84334 19.7695H4.59995V17.0461H7.84334V19.7695ZM5.38472 15.8156V3.86642H7.05853V15.8156H5.38472ZM16.4761 7.90781H8.52392V6.50233H16.4761V7.90781ZM8.52392 5.27186V3.86642H10.1977V5.2719L8.52392 5.27186ZM11.6631 5.27186V3.86642H13.3369V5.2719L11.6631 5.27186ZM16.4761 5.27186H14.8023V3.86642H16.4761V5.27186ZM20.4 19.7695H17.1567V17.0461H20.4V19.7695ZM17.9415 15.8156V3.86642H19.6153V15.8156H17.9415ZM22.7545 6.50233V7.90781H21.0807V6.50233H22.7545ZM20.348 2.63595H4.65202C3.58048 2.63595 2.67023 2.04479 2.35952 1.23047H22.6405C22.3298 2.04479 21.4195 2.63595 20.348 2.63595Z" fill="white"/>
</svg>
