<svg width="14" height="14" viewBox="0 0 14 14" fill="none" xmlns="http://www.w3.org/2000/svg">
  <g clip-path="url(#clip0_14_257)">
    <path d="M13.5268 2.75768L9.28484 7.00003L13.5268 11.2422C14.1577 11.8734 14.1577 12.8959 13.5268 13.5271C13.2115 13.8423 12.7982 14.0001 12.385 14.0001C11.9712 14.0001 11.5579 13.8426 11.2428 13.5271L7 9.28443L2.75747 13.527C2.44225 13.8423 2.02888 14 1.61539 14C1.20202 14 0.788937 13.8425 0.473435 13.527C-0.157531 12.8961 -0.157531 11.8736 0.473435 11.2421L4.71524 6.99999L0.473193 2.75768C-0.157772 2.12672 -0.157772 1.10401 0.473193 0.473044C1.10404 -0.157437 2.12615 -0.157437 2.75723 0.473044L6.99996 4.7154L11.2424 0.473044C11.8736 -0.157437 12.8958 -0.157437 13.5265 0.473044C14.1577 1.10401 14.1577 2.12672 13.5268 2.75768Z" fill="white"/>
  </g>
  <defs>
    <clipPath id="clip0_14_257">
      <rect width="14" height="14" fill="white"/>
    </clipPath>
  </defs>
</svg>